<?xml version="1.0" standalone="no"?>
<!DOCTYPE svg PUBLIC "-//W3C//DTD SVG 20010904//EN"
 "http://www.w3.org/TR/2001/REC-SVG-20010904/DTD/svg10.dtd">
<svg version="1.0" xmlns="http://www.w3.org/2000/svg"
 width="500.000000pt" height="500.000000pt" viewBox="0 0 500.000000 500.000000"
 preserveAspectRatio="xMidYMid meet">
<metadata>
Created by potrace 1.14, written by Peter Selinger 2001-2017
</metadata>
<g transform="translate(0.000000,500.000000) scale(0.100000,-0.100000)"
fill="#000000" stroke="none">
<path d="M0 4922 l0 -78 60 -2 60 -1 0 55 c0 40 -4 54 -12 51 -8 -2 -13 -19
-12 -40 1 -35 0 -37 -32 -37 l-34 0 0 65 c0 51 -3 65 -15 65 -12 0 -15 -15
-15 -78z"/>
<path d="M50 4943 c0 -39 4 -53 13 -50 6 2 12 19 12 38 0 32 2 34 35 37 l35 3
0 -141 0 -140 -36 0 c-33 0 -36 2 -33 26 3 32 -5 56 -17 48 -5 -3 -9 -27 -9
-55 l0 -49 60 0 60 0 0 90 0 90 167 2 167 3 2 53 1 52 -54 0 c-39 0 -53 -4
-50 -12 2 -8 20 -13 40 -13 36 1 37 -1 37 -35 l0 -35 -137 0 c-76 0 -141 3
-144 8 -3 4 -5 20 -4 35 1 24 5 27 38 26 25 -1 37 3 37 12 0 10 -15 14 -51 14
-36 0 -49 4 -47 12 5 13 101 19 119 7 6 -3 8 -19 6 -35 -3 -25 -8 -29 -37 -29
-19 0 -35 -6 -38 -13 -3 -10 9 -12 49 -10 l54 3 0 55 0 55 -137 1 -138 2 0
-55z"/>
<path d="M350 4940 l0 -60 55 0 c43 0 53 3 49 14 -4 9 -16 14 -33 11 -15 -2
-32 0 -37 3 -15 11 -16 50 -2 58 7 5 73 9 146 9 l133 0 -3 -35 c-3 -31 -6 -35
-33 -36 -44 -3 -45 -3 -45 -15 0 -6 21 -9 53 -7 l52 3 2 58 1 57 -169 0 -169
0 0 -60z"/>
<path d="M710 4939 l0 -60 53 3 c56 3 69 23 14 23 -39 -1 -47 9 -38 44 l7 26
130 1 c71 0 134 -3 140 -8 6 -4 9 -20 6 -36 -3 -26 -8 -29 -40 -28 -21 1 -37
-4 -40 -12 -3 -10 9 -12 49 -10 l54 3 2 58 1 57 -169 0 -169 0 0 -61z"/>
<path d="M1071 4940 l-1 -60 56 0 c40 0 54 3 51 13 -2 6 -19 12 -38 12 -32 0
-34 2 -37 35 l-3 35 143 0 143 0 -1 -28 c-1 -15 -2 -31 -3 -35 0 -5 -16 -8
-35 -7 -22 2 -37 -2 -40 -11 -4 -11 7 -14 49 -14 l55 0 0 60 0 60 -169 0 -169
0 -1 -60z"/>
<path d="M1438 4993 c-2 -5 -4 -30 -4 -58 l1 -50 53 -3 c39 -2 52 0 52 11 0
10 -12 13 -41 12 l-40 -2 3 36 3 36 140 0 140 0 -1 -25 c-1 -14 -2 -30 -3 -37
-1 -8 -14 -11 -36 -9 -25 3 -35 0 -35 -10 0 -10 14 -14 53 -14 l52 0 -3 60 -4
60 -163 0 c-90 0 -165 -3 -167 -7z"/>
<path d="M1799 4983 c-2 -21 -2 -73 0 -90 1 -18 101 -18 101 0 0 9 -13 13 -37
13 -37 -1 -38 0 -38 34 l0 35 130 1 c72 0 136 -2 143 -4 16 -5 16 -58 -1 -65
-7 -3 -25 -3 -40 -2 -18 2 -27 -1 -27 -11 0 -10 14 -14 53 -14 l52 0 0 60 0
60 -167 0 c-153 0 -168 -2 -169 -17z"/>
<path d="M2159 4995 c0 -3 -1 -25 -1 -50 0 -25 1 -49 1 -55 1 -5 24 -10 52
-10 36 0 49 4 46 13 -2 6 -15 13 -28 13 -13 1 -29 2 -36 3 -7 0 -10 12 -8 29
2 15 4 29 4 32 1 5 247 5 274 1 5 0 7 -16 5 -33 -3 -30 -6 -33 -37 -33 -19 0
-36 -6 -38 -12 -3 -9 10 -13 49 -13 l53 0 0 60 0 60 -167 0 c-93 0 -168 -2
-169 -5z"/>
<path d="M2520 4939 l0 -60 53 3 c56 3 65 24 10 22 -31 -1 -33 0 -33 35 l0 36
133 -1 c72 -1 136 -2 140 -3 5 0 7 -16 5 -33 -2 -27 -7 -33 -28 -34 -43 -2
-50 -4 -50 -14 0 -7 32 -10 90 -9 75 3 90 6 90 19 0 12 -8 15 -35 12 -34 -4
-35 -3 -35 32 l0 36 140 0 140 0 0 -35 c0 -34 -1 -35 -41 -35 -28 0 -39 -4
-36 -12 2 -8 22 -13 53 -13 l49 1 3 57 3 57 -326 0 -325 0 0 -61z"/>
<path d="M3190 4942 l0 -58 48 2 c60 2 62 2 62 14 0 6 -18 10 -40 10 -39 0
-40 1 -40 35 l0 35 140 0 140 0 0 -25 c0 -14 0 -28 0 -32 0 -9 -5 -10 -51 -12
-53 -2 -28 -26 27 -26 l49 1 3 57 3 57 -171 0 -170 0 0 -58z"/>
<path d="M3551 4946 c0 -35 3 -55 12 -58 26 -9 91 -2 94 10 3 8 -8 12 -36 12
-40 0 -41 1 -41 35 l0 36 142 -3 142 -3 2 -32 c2 -32 1 -33 -42 -33 -32 0 -42
-3 -38 -14 3 -9 22 -13 55 -12 l49 0 0 58 0 58 -169 0 -168 0 -2 -54z"/>
<path d="M3917 4993 c-2 -5 -3 -30 -3 -58 l1 -49 49 -1 c31 0 51 5 53 13 4 11
-28 18 -64 13 -8 -1 -13 11 -13 34 l0 36 143 -3 142 -3 0 -30 c0 -30 -2 -31
-52 -34 -13 0 -23 -7 -23 -14 0 -9 16 -13 49 -13 56 -1 59 5 52 79 l-3 37
-163 0 c-90 0 -166 -3 -168 -7z"/>
<path d="M4277 4948 c1 -29 2 -56 2 -59 1 -3 22 -5 49 -5 35 1 47 5 47 16 0
11 -9 14 -36 12 -35 -3 -36 -2 -37 32 l-1 36 144 0 145 0 0 -35 c0 -34 -1 -36
-35 -33 -38 2 -57 -9 -36 -21 10 -7 57 -8 91 -2 3 1 6 26 6 56 l-1 55 -170 0
-170 0 2 -52z"/>
<path d="M4642 4943 l3 -58 49 0 c63 0 75 22 15 27 -40 3 -43 5 -44 33 l0 30
143 3 142 3 0 -36 c0 -23 -5 -35 -12 -34 -36 4 -69 -2 -66 -13 4 -12 97 -20
99 -9 1 3 2 30 4 59 l2 52 -169 0 -169 0 3 -57z"/>
<path d="M2880 4944 c0 -10 12 -14 40 -14 39 0 40 -1 40 -33 l0 -33 -62 -2
c-35 -1 -86 -4 -115 -5 l-51 -4 -4 34 c-2 18 0 34 4 34 4 1 22 2 40 3 17 0 33
7 36 14 2 8 -12 12 -51 12 l-56 0 0 -55 0 -56 142 3 142 3 0 55 0 55 -53 2
c-39 1 -52 -2 -52 -13z"/>
<path d="M3010 4899 l0 -59 169 0 170 0 0 58 -1 59 -54 0 c-62 0 -70 -20 -11
-25 35 -3 37 -5 37 -36 l0 -33 -140 0 c-77 0 -140 3 -141 6 -7 54 -5 61 26 62
16 1 36 1 42 0 7 -1 10 5 7 13 -4 10 -20 15 -55 14 l-49 0 0 -59z"/>
<path d="M3370 4898 l0 -58 170 0 170 0 0 59 0 60 -50 -2 c-59 -2 -68 -21 -12
-25 36 -3 38 -4 34 -36 l-4 -32 -141 -1 -142 0 2 31 c1 17 2 33 2 36 1 3 18 4
39 2 29 -3 39 0 39 11 0 12 -12 15 -54 15 l-53 -1 0 -59z"/>
<path d="M3735 4902 l0 -57 168 -3 167 -2 0 60 0 60 -50 -3 c-61 -3 -70 -20
-15 -27 37 -5 40 -7 40 -36 l1 -30 -143 -1 -143 -1 0 34 c0 33 1 34 40 34 27
0 40 4 40 13 0 10 -15 14 -53 14 l-52 1 0 -56z"/>
<path d="M4099 4956 c-1 0 -2 -27 -3 -58 l-1 -58 170 0 170 0 -2 47 c-1 27 -2
53 -2 59 -1 17 -101 15 -101 -2 0 -10 13 -14 41 -14 39 0 40 -1 36 -32 l-3
-33 -140 0 -139 0 -1 33 c-1 31 1 32 38 32 25 0 38 5 38 13 0 10 -15 14 -50
14 -27 1 -51 0 -51 -1z"/>
<path d="M4459 4940 c0 -11 -1 -33 -1 -50 0 -16 1 -34 1 -40 1 -6 64 -10 169
-10 l168 0 -1 58 0 57 -53 2 c-38 2 -52 -2 -52 -11 0 -10 12 -14 40 -12 40 1
40 1 40 -36 l0 -37 -142 2 -141 2 -3 32 c-2 31 -1 32 39 35 60 4 52 22 -10 25
-47 2 -53 0 -54 -17z"/>
<path d="M4820 4899 l0 -59 91 0 c65 0 90 3 87 12 -3 7 -31 12 -79 12 l-74 1
0 30 c0 28 3 30 40 35 58 7 49 25 -12 27 l-53 1 0 -59z"/>
<path d="M530 4895 l0 -55 170 0 169 0 0 55 -1 55 -54 0 c-30 0 -54 -4 -54
-10 0 -10 6 -12 53 -13 24 -1 27 -5 27 -37 l0 -35 -137 0 c-129 0 -138 1 -144
20 -10 37 0 51 36 50 21 -1 36 3 39 11 4 11 -7 14 -49 14 l-55 0 0 -55z"/>
<path d="M890 4895 l0 -55 170 0 170 0 0 55 0 55 -55 0 c-42 0 -53 -3 -49 -14
3 -8 18 -12 39 -11 27 1 34 -3 37 -20 10 -48 2 -50 -147 -50 -153 0 -142 -5
-136 58 1 8 15 12 38 12 20 0 38 5 40 13 4 9 -11 12 -51 12 l-56 0 0 -55z"/>
<path d="M1254 4895 l1 -55 168 0 167 0 0 55 0 55 -55 0 c-41 0 -53 -3 -49
-13 3 -8 20 -13 41 -13 34 1 37 -1 38 -32 1 -17 -1 -33 -4 -33 -3 -1 -68 -2
-143 -3 l-138 -1 0 36 c0 36 0 36 40 34 28 -1 40 2 40 12 0 9 -15 13 -53 13
l-53 0 0 -55z"/>
<path d="M1615 4898 l0 -53 166 -3 167 -2 3 38 c7 67 3 72 -52 72 -34 0 -49
-4 -49 -13 0 -9 10 -13 28 -12 39 3 52 -4 52 -29 0 -38 -11 -42 -135 -40 -165
2 -153 -1 -153 37 0 31 2 33 36 32 20 0 37 6 39 13 3 8 -11 12 -49 12 l-54 0
1 -52z"/>
<path d="M1979 4948 c-1 -4 -1 -80 0 -95 1 -10 42 -13 169 -13 l167 0 0 55 0
55 -52 0 c-38 0 -53 -4 -53 -13 0 -10 12 -13 41 -12 l40 2 -3 -36 -3 -36 -139
0 -139 0 -3 33 c-1 17 2 33 7 33 5 1 23 2 39 3 51 2 38 21 -17 24 -29 2 -53 2
-54 0z"/>
<path d="M2340 4895 l0 -55 168 2 167 3 0 53 1 52 -53 0 c-29 0 -53 -4 -53
-10 0 -5 5 -11 10 -11 6 -1 19 -3 30 -4 11 -1 25 -3 30 -4 15 -2 12 -58 -2
-63 -11 -4 -252 -3 -268 1 -3 0 -6 15 -5 31 0 24 4 30 22 31 38 2 41 3 55 17
10 10 1 12 -45 12 l-57 0 0 -55z"/>
<path d="M0 4649 l0 -169 60 0 60 0 0 55 c0 30 -4 55 -10 55 -5 0 -11 -4 -11
-10 -1 -5 -3 -19 -4 -30 -1 -11 -3 -26 -4 -33 0 -8 -13 -14 -31 -14 l-30 0 0
144 0 144 33 -3 c29 -3 32 -6 32 -37 0 -19 6 -36 13 -38 8 -3 12 11 12 50 l0
54 -60 0 -60 0 0 -168z"/>
<path d="M4830 4736 l0 -86 60 0 60 0 0 55 c0 42 -3 53 -14 49 -9 -3 -13 -18
-11 -40 1 -19 -1 -34 -4 -35 -36 -6 -61 -4 -62 5 -1 6 -2 38 -3 70 -1 38 -6
61 -13 63 -10 4 -13 -17 -13 -81z"/>
<path d="M4885 4802 c-3 -3 -5 -27 -5 -54 0 -35 4 -48 13 -45 6 2 12 19 12 38
0 32 2 34 35 34 l35 0 0 -137 c1 -76 -2 -138 -5 -139 -3 0 -17 -2 -32 -4 -30
-4 -39 10 -32 49 3 19 0 26 -11 26 -11 0 -15 -12 -15 -50 l0 -50 60 0 60 0 -2
168 -3 167 -52 1 c-29 1 -55 -1 -58 -4z"/>
<path d="M56 4633 c-3 -4 -6 -28 -6 -55 0 -34 4 -48 14 -48 9 0 13 10 11 29
-3 40 7 53 41 49 l29 -3 0 -137 c0 -76 -2 -138 -5 -139 -26 -5 -60 -5 -61 0
-1 3 -2 20 -4 36 -4 44 -4 45 -15 45 -5 0 -10 -25 -10 -55 l0 -55 60 0 60 0 0
165 c0 91 -3 165 -7 166 -47 5 -102 6 -107 2z"/>
<path d="M4841 4622 c-7 -2 -11 -54 -11 -167 0 -184 -5 -175 83 -166 l37 3 0
49 c0 36 -4 49 -14 49 -10 0 -14 -9 -12 -27 5 -41 -3 -53 -35 -53 -34 0 -31
-11 -33 158 l-1 133 35 -4 c32 -3 35 -5 35 -37 0 -18 6 -35 13 -37 8 -3 12 11
12 49 l0 54 -49 0 c-26 0 -53 -2 -60 -4z"/>
<path d="M0 4288 c0 -127 3 -168 13 -169 22 -1 72 -2 90 0 14 1 17 11 17 52 0
36 -4 49 -13 46 -6 -2 -11 -18 -11 -35 1 -18 -1 -32 -5 -33 -3 0 -18 -2 -33
-4 l-28 -4 0 145 0 144 29 0 c32 0 40 -12 36 -53 -2 -18 1 -27 11 -27 12 0 14
12 12 52 l-3 53 -57 0 -58 1 0 -168z"/>
<path d="M4880 4386 c0 -48 2 -57 13 -47 6 6 12 26 12 44 0 28 3 32 33 34 17
2 33 -1 33 -5 5 -31 3 -265 -2 -273 -3 -6 -19 -9 -35 -7 -27 3 -29 6 -28 41 2
26 -2 37 -12 37 -10 0 -14 -14 -14 -53 l0 -53 60 0 60 0 0 168 c0 127 -3 168
-12 169 -7 1 -34 2 -61 3 l-47 1 0 -59z"/>
<path d="M2395 4364 c-38 -19 -113 -55 -165 -79 -52 -24 -160 -75 -240 -113
-126 -60 -254 -121 -769 -364 -57 -26 -135 -64 -175 -82 -39 -19 -159 -76
-266 -126 -107 -50 -197 -96 -200 -101 -3 -5 -6 -39 -5 -76 l1 -68 1907 0
1907 0 1 37 c1 21 1 47 1 58 0 53 -3 57 -64 85 -74 34 -248 116 -442 209 -76
36 -139 66 -141 66 -1 0 -82 38 -180 85 -97 47 -178 85 -180 85 -14 0 -255
123 -255 131 0 5 -9 9 -20 9 -19 0 -133 52 -488 221 -68 33 -131 59 -140 58
-10 0 -48 -16 -87 -35z"/>
<path d="M50 4223 c0 -38 4 -53 14 -53 9 0 13 12 12 38 -1 36 0 37 34 37 l35
0 0 -133 c0 -74 -3 -138 -6 -144 -3 -5 -19 -8 -35 -6 -25 3 -29 7 -30 36 -2
50 -3 54 -14 47 -13 -8 -13 -105 0 -106 6 -1 26 -1 45 -1 19 0 42 0 50 1 13 1
15 26 15 166 0 91 -3 166 -7 166 -5 1 -32 2 -60 3 l-53 2 0 -53z"/>
<path d="M4862 4262 l-32 -3 2 -167 3 -167 58 0 57 -1 0 53 c0 39 -4 53 -14
53 -10 0 -14 -11 -12 -37 1 -36 -1 -38 -31 -40 -18 -1 -34 2 -34 5 -1 4 -2 65
-3 135 -2 133 0 140 41 143 25 1 30 -9 28 -48 -1 -18 3 -28 12 -28 9 0 13 15
13 49 0 46 -2 49 -27 52 -16 2 -43 3 -61 1z"/>
<path d="M0 3925 l0 -171 58 1 57 0 3 54 c2 40 0 52 -10 49 -7 -3 -13 -20 -13
-39 0 -31 -3 -34 -33 -36 l-32 -3 0 146 0 145 33 -3 c30 -3 32 -5 31 -40 -1
-23 4 -39 12 -42 11 -4 14 7 14 48 l0 54 -60 4 -60 3 0 -170z"/>
<path d="M4890 4082 c-6 -2 -10 -26 -10 -54 0 -35 4 -48 13 -46 6 3 13 18 13
34 1 16 2 32 3 36 1 4 13 5 29 3 15 -2 29 -4 32 -4 5 -1 5 -245 1 -274 0 -5
-16 -7 -33 -5 -31 3 -33 5 -32 41 2 26 -2 37 -13 37 -11 0 -13 -12 -11 -52 l3
-53 55 0 55 0 0 169 0 169 -48 1 c-26 0 -52 0 -57 -2z"/>
<path d="M103 3912 l-53 -3 0 -50 c0 -34 4 -49 13 -49 9 0 13 10 12 28 -3 41
3 48 38 47 l32 -1 0 -129 c1 -72 -1 -135 -3 -142 -2 -7 -18 -12 -36 -11 -30 1
-32 3 -32 36 1 20 -5 37 -11 39 -9 3 -13 -11 -13 -49 l0 -54 60 0 60 0 0 168
c0 92 -3 168 -7 170 -5 2 -32 2 -60 0z"/>
<path d="M4830 3731 l0 -168 60 -1 60 0 0 54 c0 30 -4 54 -10 54 -10 0 -12 -7
-14 -50 -1 -20 -7 -26 -30 -28 -16 -2 -32 1 -35 7 -5 8 -7 241 -2 274 0 4 13
6 29 3 15 -2 30 -5 33 -5 3 -1 5 -13 4 -28 -2 -35 4 -55 16 -47 5 3 9 27 9 55
l0 49 -60 0 -60 0 0 -169z"/>
<path d="M2 3563 l3 -168 55 0 55 0 3 54 c2 40 0 52 -10 49 -7 -3 -13 -20 -13
-39 0 -31 -3 -34 -32 -37 l-33 -3 0 145 0 145 28 -2 c34 -3 43 -14 37 -49 -4
-21 -1 -28 10 -28 11 0 15 12 15 50 l0 50 -60 0 -60 0 2 -167z"/>
<path d="M4880 3664 c0 -47 2 -54 14 -45 7 6 12 25 11 41 -2 28 0 30 34 30
l37 0 -1 -140 0 -140 -36 0 c-34 0 -35 1 -35 37 1 21 -4 38 -12 41 -8 2 -12
-12 -12 -51 l0 -54 60 -1 60 -1 0 170 0 169 -60 0 -60 0 0 -56z"/>
<path d="M50 3495 c0 -30 4 -55 9 -55 12 0 18 20 16 53 -1 15 2 28 7 28 4 1
20 2 35 3 l28 1 0 -140 0 -140 -35 0 c-29 0 -35 4 -36 23 -3 47 -4 52 -14 52
-5 0 -10 -25 -10 -55 l0 -55 60 0 60 0 0 170 0 170 -60 0 -60 0 0 -55z"/>
<path d="M4830 3370 l0 -167 60 -1 60 -1 0 56 c0 39 -4 53 -12 51 -7 -3 -13
-20 -12 -40 0 -34 -2 -37 -33 -40 -18 -2 -34 -2 -34 2 -1 3 -2 67 -3 143 l-2
137 37 0 c35 0 37 -2 34 -27 -3 -32 3 -53 16 -53 5 0 9 24 9 54 l0 54 -60 0
-60 0 0 -168z"/>
<path d="M0 3202 l0 -167 60 -3 60 -2 0 55 c0 30 -4 55 -10 55 -5 0 -11 -7
-11 -15 -1 -8 -2 -23 -3 -32 -2 -30 -14 -41 -41 -35 l-25 4 0 138 c0 123 2
138 18 142 31 9 48 -5 47 -39 0 -55 20 -42 23 15 l3 52 -60 0 -61 0 0 -168z"/>
<path d="M4880 3305 c0 -40 4 -55 14 -55 9 0 13 12 11 40 -2 40 -2 40 34 40
l36 0 0 -139 0 -139 -32 -4 c-34 -4 -35 -3 -37 47 -1 11 -5 22 -11 25 -6 3
-11 -17 -13 -47 l-3 -53 60 0 61 0 0 168 0 168 -60 2 -60 1 0 -54z"/>
<path d="M946 3281 c-2 -3 -4 -57 -5 -119 l0 -112 32 -1 c18 0 710 -1 1539 -2
999 -1 1508 1 1509 8 4 29 5 212 1 222 -3 9 -371 11 -1538 11 -843 0 -1536 -3
-1538 -7z"/>
<path d="M50 3134 c0 -40 3 -55 13 -51 6 2 12 18 12 36 0 36 16 50 48 44 21
-4 22 -9 22 -130 0 -92 -3 -127 -12 -131 -10 -3 -13 12 -13 52 l0 56 -60 0
-60 0 0 -134 0 -134 60 0 60 1 0 53 c0 29 4 56 10 59 12 8 12 9 14 -142 l2
-123 -37 0 c-36 0 -37 1 -35 37 0 21 -4 38 -11 40 -9 3 -13 -11 -13 -51 l0
-55 60 1 60 1 0 312 0 313 -60 1 -60 1 0 -56z m45 -194 c1 -25 -4 -40 -11 -40
-6 0 -12 6 -11 13 1 30 -4 47 -13 47 -13 0 -14 -157 -1 -164 12 -8 22 20 15
39 -4 10 0 15 16 15 14 0 19 -4 13 -12 -4 -7 -8 -24 -8 -38 -1 -21 -6 -26 -33
-28 l-32 -3 0 105 0 105 28 3 c35 4 36 4 37 -42z"/>
<path d="M4830 3010 l0 -170 61 0 60 0 -3 53 c-3 53 -23 70 -23 20 0 -40 -11
-52 -43 -49 l-27 3 0 132 c0 73 2 137 6 142 3 6 19 9 35 7 26 -3 29 -7 29 -37
0 -19 6 -36 13 -38 8 -3 12 11 12 50 l0 54 -60 2 -60 1 0 -170z"/>
<path d="M4880 2943 c0 -29 5 -53 10 -53 6 0 11 6 11 13 1 6 3 19 4 27 1 8 3
21 4 28 0 9 12 12 33 10 l33 -3 0 -137 c0 -88 -3 -138 -10 -139 -5 0 -19 -2
-30 -4 -24 -5 -32 7 -30 45 1 16 -4 31 -12 34 -10 4 -13 -8 -13 -49 0 -30 3
-55 8 -56 4 0 31 -1 60 -2 l52 -2 0 170 0 171 -60 -1 -60 0 0 -52z"/>
<path d="M1082 2928 c0 -49 -5 -238 -17 -723 -7 -251 -14 -528 -21 -815 -3
-134 -6 -247 -6 -250 -3 -35 -3 -35 220 -35 181 -1 218 2 223 14 3 8 4 51 3
95 -4 131 -14 469 -19 641 -3 88 -7 234 -10 325 -2 91 -7 266 -11 390 -6 211
-10 352 -13 393 -1 15 -16 17 -175 17 l-173 0 -1 -52z"/>
<path d="M1899 2958 c0 -13 -2 -77 -4 -143 -2 -66 -6 -241 -9 -390 -4 -148 -9
-335 -11 -415 -6 -190 -16 -622 -18 -780 l-2 -125 223 0 223 0 -6 210 c-3 115
-8 284 -10 375 -3 91 -7 242 -10 335 -3 94 -8 265 -11 380 -3 116 -7 246 -9
290 -1 44 -3 126 -4 183 l-1 102 -175 0 c-175 0 -175 0 -176 -22z"/>
<path d="M2719 2978 c-3 -7 -7 -124 -13 -378 -4 -151 -9 -327 -11 -390 -8
-258 -17 -707 -19 -900 l-1 -205 220 0 220 0 -1 95 c-1 52 -5 194 -8 315 -4
121 -9 290 -11 375 -3 85 -7 225 -10 310 -2 85 -7 268 -11 405 -6 222 -9 322
-13 363 -1 9 -42 12 -171 12 -93 0 -171 -1 -171 -2z"/>
<path d="M3529 2948 c0 -18 -2 -91 -4 -163 -4 -167 -15 -630 -20 -805 -2 -74
-7 -261 -10 -415 -4 -154 -8 -319 -10 -367 -1 -49 0 -89 4 -89 3 -1 104 -2
224 -3 l218 -1 -6 230 c-6 257 -12 444 -20 710 -3 99 -8 268 -11 375 -3 107
-7 249 -9 315 -2 66 -4 148 -4 183 l-1 62 -175 0 -175 0 -1 -32z"/>
<path d="M4833 2805 c-2 -6 -2 -82 -1 -169 l3 -158 58 -2 57 -1 0 53 c0 37 -4
52 -13 52 -9 0 -13 -10 -12 -27 1 -16 0 -33 -2 -39 -5 -15 -63 -16 -64 -1 -5
48 -3 260 2 268 3 6 19 9 35 7 26 -3 29 -6 28 -40 0 -25 4 -38 13 -38 18 0 18
99 1 101 -49 6 -101 2 -105 -6z"/>
<path d="M0 2548 l0 -168 60 0 60 0 0 49 c0 28 -4 52 -9 55 -12 8 -19 -14 -16
-47 3 -25 0 -27 -31 -27 l-34 0 0 140 0 140 34 0 c33 0 34 -1 32 -37 0 -21 4
-38 12 -40 9 -3 12 11 12 51 l0 55 -60 -1 -60 -2 0 -168z"/>
<path d="M4880 2580 c0 -36 4 -50 14 -50 10 0 14 10 12 35 -3 30 0 36 20 41
47 12 49 5 49 -142 l0 -139 -35 0 c-32 0 -35 3 -36 30 -2 55 -3 60 -15 48 -5
-5 -9 -32 -7 -59 l3 -48 55 0 55 1 3 167 2 166 -60 0 -60 0 0 -50z"/>
<path d="M50 2483 c0 -39 4 -53 13 -50 6 2 12 19 12 38 0 32 2 34 35 34 l34 0
1 -133 c1 -83 -3 -136 -9 -141 -6 -5 -22 -8 -36 -6 -21 1 -25 7 -26 33 -2 50
-3 54 -14 47 -5 -3 -10 -28 -10 -56 l0 -49 60 0 60 0 0 169 0 170 -60 0 -60
-1 0 -55z"/>
<path d="M4857 2452 l-27 -3 2 -167 3 -167 58 0 57 -1 0 53 c0 38 -4 53 -13
53 -9 0 -13 -12 -13 -37 1 -36 -1 -38 -31 -40 -19 -1 -34 4 -34 10 -5 43 -3
260 2 268 3 6 19 9 35 7 24 -2 29 -8 30 -33 2 -52 4 -56 14 -50 6 3 10 28 10
54 0 48 -1 49 -32 52 -18 2 -45 3 -61 1z"/>
<path d="M0 2188 l0 -168 61 0 60 0 -3 53 c-3 52 -21 65 -24 17 -1 -14 -2 -30
-3 -35 0 -6 -14 -11 -31 -11 l-30 -2 0 145 0 144 33 -3 c30 -3 32 -5 31 -40
-1 -27 3 -38 13 -38 11 0 13 12 11 52 l-3 53 -57 0 -58 1 0 -168z"/>
<path d="M4898 2272 c-14 -3 -18 -14 -18 -53 0 -35 4 -49 14 -49 9 0 13 12 12
38 -1 36 0 37 34 37 l35 0 0 -140 0 -140 -36 -3 c-35 -3 -35 -2 -35 34 1 21
-4 39 -11 41 -10 4 -13 -21 -13 -101 0 -64 4 -106 10 -106 11 0 12 3 14 45 1
27 5 30 37 33 l35 3 -2 -138 c-1 -76 -2 -141 -3 -145 -1 -4 -13 -5 -28 -3 -16
2 -31 4 -34 4 -3 1 -6 17 -5 36 2 56 -19 45 -22 -12 l-3 -53 60 0 61 0 0 335
0 335 -22 1 c-13 0 -32 2 -43 3 -11 1 -28 0 -37 -2z"/>
<path d="M50 2123 c0 -38 4 -53 14 -53 9 0 13 12 12 38 -1 36 0 37 34 37 l34
0 1 -133 c1 -84 -3 -135 -9 -140 -10 -8 -18 -8 -53 -4 -7 1 -11 15 -9 37 3 25
0 35 -10 35 -17 0 -20 -99 -4 -101 6 0 31 -1 58 -2 l47 -1 0 169 0 169 -57 1
-58 1 0 -53z"/>
<path d="M4830 1935 l0 -155 60 0 60 0 0 55 c0 30 -4 55 -10 55 -11 0 -12 -3
-14 -45 -1 -27 -5 -30 -37 -33 l-34 -3 0 118 c1 124 5 144 33 140 30 -5 40
-16 37 -46 -1 -18 3 -32 11 -35 11 -4 14 7 14 49 l0 55 -60 0 -60 0 0 -155z"/>
<path d="M0 1828 l0 -168 25 -1 c14 -1 36 -1 50 -1 14 0 30 0 35 1 6 1 10 24
10 51 0 37 -4 50 -15 50 -10 0 -14 -10 -12 -37 2 -36 1 -38 -30 -40 l-33 -1 0
142 0 142 29 2 c31 2 39 -8 36 -50 -1 -18 3 -28 12 -28 9 0 13 15 13 53 l0 52
-60 0 -60 0 0 -167z"/>
<path d="M67 1812 c-22 -4 -25 -102 -3 -102 9 0 13 12 12 38 -1 36 0 37 34 37
l35 0 0 -133 c0 -73 -2 -138 -6 -143 -3 -6 -19 -8 -35 -6 -25 3 -29 8 -29 37
0 19 -6 35 -13 38 -10 3 -12 -9 -10 -49 l3 -54 58 0 57 -1 0 167 0 167 -43 3
c-24 2 -51 3 -60 1z"/>
<path d="M4843 1753 c-10 -4 -13 -46 -13 -169 l0 -164 61 0 60 0 -3 53 c-3 59
-23 67 -23 9 0 -34 -2 -37 -27 -36 -16 1 -32 2 -36 3 -4 0 -7 63 -7 139 l0
137 29 3 c34 4 44 -9 41 -49 -2 -20 2 -29 12 -29 11 0 13 12 11 52 l-3 52 -45
1 c-25 1 -51 0 -57 -2z"/>
<path d="M0 1465 l0 -170 60 0 60 0 0 53 c0 39 -4 52 -13 49 -6 -2 -12 -19
-12 -38 0 -31 -3 -34 -33 -37 l-33 -3 3 143 c3 153 0 144 51 139 9 -1 13 -13
12 -36 -2 -24 2 -35 11 -35 10 0 14 15 14 50 0 45 -2 50 -22 51 -13 0 -40 1
-61 2 l-37 2 0 -170z"/>
<path d="M4885 1571 c-3 -2 -5 -26 -5 -53 0 -35 4 -48 15 -48 10 0 13 9 10 28
-5 40 7 54 41 50 l29 -3 0 -137 c1 -123 -1 -137 -17 -141 -38 -10 -57 3 -54
38 3 22 -1 36 -10 39 -11 4 -14 -7 -14 -49 0 -37 4 -55 13 -56 6 0 33 -1 60
-2 l47 -2 0 170 0 170 -55 1 c-31 0 -58 -2 -60 -5z"/>
<path d="M52 1398 c3 -57 23 -70 23 -15 0 37 7 44 43 42 l27 -1 0 -140 0 -139
-35 0 c-34 0 -35 1 -34 38 0 25 -4 37 -13 37 -11 0 -13 -13 -11 -52 l3 -52 55
-1 55 0 3 168 2 167 -60 0 -61 0 3 -52z"/>
<path d="M4830 1225 l0 -170 48 1 c26 1 53 2 60 3 18 1 17 101 -1 101 -10 0
-13 -12 -12 -40 l2 -40 -36 3 -35 2 -1 143 -1 142 37 -2 c37 -1 37 -2 34 -40
-2 -27 1 -38 11 -38 10 0 14 14 14 53 l0 53 -60 0 -60 0 0 -171z"/>
<path d="M0 1102 l0 -169 60 -2 60 -2 0 55 c0 31 -4 56 -9 56 -13 0 -22 -30
-16 -58 3 -19 0 -22 -31 -22 l-34 0 0 140 c0 117 2 140 15 141 51 4 50 5 49
-33 -1 -23 4 -39 13 -42 10 -4 13 8 13 49 l0 55 -60 0 -60 0 0 -168z"/>
<path d="M4880 1163 c0 -38 4 -53 14 -53 9 0 13 12 12 38 -1 36 0 37 34 37
l35 0 0 -140 0 -139 -31 -3 c-34 -3 -47 17 -39 58 2 12 -2 19 -11 19 -12 0
-14 -11 -12 -52 l3 -53 55 0 55 0 3 168 c2 130 0 167 -10 168 -7 0 -34 1 -61
2 l-47 2 0 -52z"/>
<path d="M50 1040 c0 -36 4 -50 14 -50 9 0 13 11 11 34 -2 32 0 34 32 38 19 2
35 2 37 -1 1 -3 2 -69 2 -145 l-1 -139 -33 -1 c-17 -1 -33 2 -33 7 -2 12 -6
46 -8 62 0 8 -5 15 -11 15 -5 0 -10 -25 -10 -55 l0 -55 60 1 60 2 0 168 0 169
-60 0 -60 0 0 -50z"/>
<path d="M756 1031 c-1 -3 -2 -55 -1 -114 1 -89 -2 -110 -15 -116 -8 -4 -53
-7 -100 -7 l-85 1 -5 -120 -5 -120 -97 0 -98 1 0 -122 0 -122 2135 0 c1981 0
2135 1 2136 16 3 55 0 213 -5 220 -2 4 -48 8 -100 7 l-96 -1 0 121 0 120 -102
0 -103 0 -2 108 c-1 60 -4 114 -6 121 -4 11 -339 13 -1726 13 -947 0 -1723 -3
-1725 -6z"/>
<path d="M4846 1032 c-15 -3 -16 -20 -14 -170 l3 -166 58 -1 57 -1 0 54 c0 38
-4 52 -12 50 -7 -3 -13 -20 -13 -39 0 -30 -3 -34 -31 -36 -40 -3 -40 -1 -39
157 l0 125 35 0 c34 -1 35 -2 34 -38 -1 -25 3 -37 12 -37 10 0 14 15 14 49 l0
49 -43 3 c-24 2 -51 3 -61 1z"/>
<path d="M0 741 l0 -167 60 -2 60 -2 0 56 c0 40 -3 55 -12 52 -7 -3 -13 -20
-13 -39 0 -40 -7 -48 -40 -41 -23 4 -24 7 -27 127 -4 156 -4 155 36 155 31 0
32 -1 31 -40 -1 -27 3 -40 12 -40 9 0 13 16 13 54 l0 55 -60 0 -60 -1 0 -167z"/>
<path d="M4880 800 c0 -37 4 -50 14 -50 11 0 14 10 12 35 -2 19 -1 35 3 36 37
6 61 4 64 -5 2 -6 3 -69 3 -141 l-1 -130 -36 -3 c-35 -3 -35 -2 -35 34 1 21
-4 39 -11 41 -9 3 -13 -11 -13 -49 l0 -54 58 1 57 0 3 168 2 167 -60 0 -60 0
0 -50z"/>
<path d="M55 722 c-3 -3 -5 -27 -5 -54 0 -35 4 -48 13 -45 6 2 12 19 12 37 0
24 5 35 20 40 47 17 50 8 50 -138 l0 -136 -32 -7 c-36 -7 -45 4 -37 44 2 16
-1 27 -11 31 -12 4 -15 -5 -15 -49 l0 -55 60 0 60 0 0 170 0 171 -55 -2 c-30
-1 -57 -4 -60 -7z"/>
<path d="M4830 500 l0 -170 60 0 60 0 0 56 c0 40 -3 55 -12 52 -7 -3 -13 -20
-13 -39 0 -32 -2 -34 -35 -37 l-35 -3 1 138 c1 76 2 140 3 143 0 3 16 5 33 5
31 -1 33 -3 32 -38 0 -21 5 -38 13 -41 10 -4 13 8 13 49 l0 55 -60 0 -60 0 0
-170z"/>
<path d="M0 380 l0 -170 60 0 60 0 0 55 c0 43 -3 53 -14 49 -10 -4 -14 -17
-11 -40 2 -24 -1 -34 -11 -35 -52 -5 -49 -14 -52 139 l-3 142 34 0 c31 0 34
-3 32 -27 -2 -33 4 -53 16 -53 5 0 9 25 9 55 l0 55 -60 0 -60 0 0 -170z"/>
<path d="M4880 435 c0 -42 3 -53 14 -49 8 3 13 18 12 37 -1 30 2 32 34 35 l35
3 0 -140 1 -139 -28 -4 c-36 -6 -43 0 -43 41 0 19 -6 36 -13 39 -8 2 -12 -12
-12 -52 l0 -56 60 0 60 0 0 170 0 170 -60 0 -60 0 0 -55z"/>
<path d="M55 361 c-3 -2 -5 -26 -5 -53 0 -35 4 -48 13 -45 7 2 12 19 11 40 0
36 1 37 35 37 l36 0 0 -140 c0 -77 -2 -141 -5 -141 -24 -6 -60 -3 -63 6 -2 5
-3 22 -2 38 1 17 -3 27 -12 27 -20 0 -18 -100 2 -101 8 0 34 -1 58 -1 l42 -1
3 55 3 56 67 -1 67 -2 3 -32 c3 -32 3 -33 -38 -33 -63 0 -46 -25 17 -26 l51
-1 1 59 1 58 -85 0 -85 0 0 100 c0 55 -3 101 -7 101 -27 4 -104 4 -108 0z"/>
<path d="M4830 155 c0 -119 3 -155 13 -155 10 0 12 32 12 136 -1 112 2 137 15
144 26 13 55 -4 56 -36 3 -42 3 -44 14 -44 6 0 10 24 10 54 l0 54 -60 1 -60 1
0 -155z"/>
<path d="M4 175 c-9 -22 1 -160 11 -160 6 0 11 33 13 73 l3 72 32 0 c32 0 33
-1 32 -40 -1 -27 3 -40 12 -40 9 0 13 16 13 53 l0 52 -56 1 c-34 0 -58 -4 -60
-11z"/>
<path d="M360 101 l0 -59 53 1 c57 2 69 22 12 22 -34 0 -35 1 -35 37 l0 37
138 -2 137 -2 3 -32 c3 -32 2 -33 -37 -33 -42 0 -55 -14 -23 -24 9 -3 33 -5
53 -4 l35 1 1 59 0 58 -168 0 -169 0 0 -59z"/>
<path d="M721 102 l-1 -58 52 1 c32 0 53 5 55 13 3 8 -8 12 -36 12 -40 0 -41
1 -41 34 l0 34 128 0 c155 0 162 -1 159 -36 -2 -24 -7 -28 -42 -32 -56 -7 -46
-25 15 -27 l50 -2 0 60 0 59 -169 0 -168 0 -2 -58z"/>
<path d="M1085 105 c-1 -61 4 -66 68 -63 24 1 37 6 37 15 0 10 -10 14 -27 13
-49 -4 -53 -1 -53 34 l0 34 140 -1 c77 0 140 -3 141 -6 9 -52 6 -61 -23 -62
-44 -2 -48 -3 -48 -14 0 -5 23 -10 52 -10 l52 0 -1 48 c-1 26 -2 52 -2 57 -1
6 -64 10 -169 10 l-167 0 0 -55z"/>
<path d="M1450 102 l0 -59 50 -2 c40 -1 50 2 50 14 0 10 -7 15 -17 14 -55 -5
-64 0 -61 35 l2 35 140 -2 141 -2 2 -32 c1 -34 -8 -39 -59 -34 -10 1 -18 -4
-18 -13 0 -11 13 -15 53 -15 l52 0 0 60 0 59 -167 0 -168 0 0 -58z"/>
<path d="M1809 153 c0 -5 -1 -30 -2 -58 l-1 -49 52 -3 c41 -2 52 0 52 13 0 8
-6 14 -12 13 -7 -1 -25 -1 -39 0 -23 1 -26 5 -25 35 l1 33 142 0 143 0 0 -33
c0 -33 -1 -34 -40 -34 -27 0 -40 -4 -40 -14 0 -10 14 -13 53 -12 l52 1 0 58 0
57 -167 0 c-93 0 -168 -3 -169 -7z"/>
<path d="M2172 103 l3 -58 45 0 c55 0 70 19 19 23 -30 2 -38 8 -41 27 -3 13
-2 28 1 33 3 5 67 9 143 10 119 0 137 -2 140 -16 9 -36 -3 -51 -40 -54 -55 -5
-45 -23 14 -24 l51 -2 2 59 1 59 -170 0 -171 0 3 -57z"/>
<path d="M2533 103 l2 -58 53 -1 c60 -1 68 19 9 24 -20 2 -37 6 -38 10 0 4 -2
19 -3 33 l-2 27 143 -1 143 0 0 -23 c0 -13 0 -27 0 -31 1 -5 -15 -10 -35 -13
-45 -6 -46 -24 -3 -27 56 -2 58 -3 58 -13 0 -6 -27 -10 -60 -10 l-60 0 0 35
c0 34 1 35 41 35 28 0 39 4 37 13 -3 7 -23 12 -54 12 l-49 0 -1 -57 -2 -56
243 -1 243 -2 0 55 c0 60 -3 63 -62 61 -54 -1 -61 -25 -8 -25 33 0 40 -4 44
-23 9 -45 4 -47 -143 -47 l-139 0 0 35 c0 23 5 35 13 34 35 -4 64 2 64 15 0
11 -12 13 -49 11 -34 -2 -48 0 -48 9 0 9 18 13 60 14 l60 0 0 -34 c0 -30 -3
-34 -27 -35 -16 -1 -34 -1 -42 0 -7 2 -11 -4 -9 -11 3 -8 23 -13 55 -14 l50
-1 2 58 1 59 -244 0 -245 0 2 -57z"/>
<path d="M3044 103 l1 -58 49 0 c31 0 51 5 53 13 4 9 -7 11 -35 9 -35 -3 -41
0 -45 19 -9 48 3 52 148 51 l135 0 0 -34 c0 -31 -2 -33 -34 -33 -19 0 -38 -4
-41 -10 -7 -11 -7 -12 58 -15 l47 -3 0 59 0 59 -169 0 -169 0 2 -57z"/>
<path d="M3402 101 l0 -58 51 1 c33 1 52 6 55 15 3 10 -5 12 -37 9 l-41 -4 0
37 0 36 143 0 143 0 0 -31 c-1 -29 -4 -31 -41 -36 -56 -7 -46 -25 15 -27 l50
-2 0 60 0 59 -169 0 -168 0 -1 -59z"/>
<path d="M3764 108 c0 -29 4 -56 8 -59 5 -3 29 -7 53 -7 34 -2 45 1 45 13 0
11 -11 15 -39 15 -37 0 -38 1 -37 33 l1 32 138 2 c75 1 138 -2 138 -5 1 -4 3
-20 4 -37 3 -29 1 -30 -36 -30 -21 0 -40 -4 -41 -10 -2 -6 20 -10 51 -10 l54
0 0 55 1 55 -170 3 -169 2 -1 -52z"/>
<path d="M4129 145 c-1 -8 -1 -24 -1 -35 0 -71 -2 -69 52 -68 37 0 50 4 50 14
0 8 -6 14 -12 13 -7 -1 -26 -1 -41 0 -26 1 -28 4 -24 34 l3 32 120 2 c152 3
161 1 162 -37 1 -31 -9 -36 -60 -31 -10 1 -18 -4 -18 -13 0 -13 11 -15 53 -13
l52 2 0 58 0 57 -167 0 c-142 0 -168 -2 -169 -15z"/>
<path d="M4490 101 l0 -59 53 2 c53 1 67 20 15 22 -34 0 -40 6 -43 43 l-2 29
143 0 144 -1 0 -34 c0 -32 -1 -33 -41 -33 -57 0 -46 -23 14 -27 l47 -4 0 61 0
60 -165 0 -165 0 0 -59z"/>
<path d="M4880 74 c0 -30 5 -54 10 -54 11 0 11 1 14 45 1 32 17 44 51 37 18
-3 21 -10 21 -49 -1 -29 4 -48 12 -50 9 -4 12 13 12 60 l0 64 -60 1 -60 1 0
-55z"/>
<path d="M180 59 l0 -57 168 1 167 2 0 55 0 54 -52 2 c-39 1 -53 -3 -53 -12 0
-13 23 -19 63 -15 13 2 17 -5 17 -33 l0 -36 -140 0 -140 0 0 36 c0 35 1 36 30
32 18 -3 35 1 41 9 13 15 12 15 -53 17 l-48 2 0 -57z"/>
<path d="M559 112 c-12 -2 -17 -16 -18 -56 l-1 -53 171 0 170 0 -3 56 -3 56
-47 1 c-31 1 -49 -4 -52 -13 -5 -13 8 -17 52 -13 19 1 22 -3 22 -34 l0 -36
-140 0 -140 0 0 35 c0 23 5 35 13 34 36 -4 68 2 65 13 -4 12 -55 18 -89 10z"/>
<path d="M907 100 c-2 -9 -3 -29 -2 -46 2 -16 3 -34 4 -40 1 -8 53 -11 166
-12 l165 0 0 56 0 57 -49 1 c-34 1 -52 -3 -55 -12 -4 -10 5 -14 34 -14 22 0
41 -3 41 -7 1 -5 3 -20 5 -35 l3 -28 -145 0 -144 0 0 35 c0 19 3 34 8 34 31
-5 72 3 72 14 0 21 -98 17 -103 -3z"/>
<path d="M1269 105 c-1 -5 -2 -30 -3 -55 l-1 -45 170 -2 170 -2 -2 47 c-1 26
-2 52 -2 58 -1 8 -79 12 -111 5 -17 -4 22 -21 53 -23 35 -2 37 -4 37 -35 l0
-33 -145 0 -145 0 0 35 c0 23 5 35 13 34 35 -4 67 2 67 14 0 16 -99 18 -101 2z"/>
<path d="M1630 59 l0 -57 168 0 167 1 0 53 c1 59 -2 61 -60 60 -28 -1 -40 -5
-40 -16 0 -11 9 -14 36 -12 36 3 37 3 36 -33 l-1 -36 -141 3 -140 3 1 25 c1
14 2 28 3 33 0 4 17 7 36 7 23 0 35 5 35 14 0 9 -14 13 -50 12 l-50 0 0 -57z"/>
<path d="M1990 61 l0 -58 170 0 170 0 0 57 0 57 -52 -1 c-30 -1 -53 -7 -56
-14 -3 -11 30 -17 66 -13 7 1 12 -11 12 -34 l0 -36 -142 3 -143 3 -1 33 c0 27
3 33 20 31 45 -3 65 1 61 14 -3 7 -26 13 -55 14 l-50 2 0 -58z"/>
<path d="M2352 59 l-2 -57 167 2 168 1 2 53 c2 56 4 55 -65 56 -33 1 -42 -2
-40 -14 2 -11 14 -14 40 -12 38 4 49 -11 40 -51 -4 -15 -19 -17 -141 -17 -76
0 -140 2 -143 5 -2 3 -3 18 0 33 3 25 8 29 39 30 69 3 56 25 -15 27 l-48 1 -2
-57z"/>
<path d="M3238 113 c-15 -4 -18 -15 -17 -59 l2 -54 168 0 169 0 0 58 0 58 -47
-2 c-67 -3 -67 -2 -54 -17 6 -8 23 -12 41 -9 29 4 30 3 30 -32 l0 -36 -140 0
-140 0 0 33 c0 31 2 33 37 35 40 3 50 8 39 19 -8 8 -64 12 -88 6z"/>
<path d="M3588 102 c-3 -9 -4 -35 -3 -57 l1 -40 169 -3 170 -2 -1 57 0 58 -49
0 c-59 0 -74 -22 -18 -27 35 -3 38 -5 38 -33 l0 -30 -142 -3 -143 -3 0 36 c0
32 3 36 23 35 41 -4 57 0 57 13 0 8 -18 13 -49 14 -39 1 -50 -2 -53 -15z"/>
<path d="M3949 103 c0 -7 -1 -26 -1 -43 0 -65 -13 -61 169 -58 l168 3 0 40 c0
64 -9 76 -58 72 -28 -2 -42 -8 -42 -18 0 -10 10 -13 37 -11 35 3 36 3 36 -32
l0 -36 -145 0 -144 0 3 33 c2 20 9 33 18 33 8 1 26 2 38 3 14 1 22 6 20 13 -6
17 -98 18 -99 1z"/>
<path d="M4310 58 l0 -58 167 2 167 3 2 52 c0 30 -4 54 -10 56 -26 8 -90 1
-93 -10 -3 -9 8 -13 36 -13 40 0 41 -1 41 -35 l0 -35 -143 0 -144 0 3 28 c1
15 2 30 3 35 1 4 17 7 36 7 21 0 35 5 35 13 0 8 -17 12 -50 13 l-50 1 0 -59z"/>
<path d="M4675 112 c-3 -3 -5 -29 -5 -59 l0 -53 75 0 c43 0 75 4 75 10 0 6
-27 10 -60 10 l-60 0 0 35 c0 34 1 35 40 35 28 0 38 4 34 13 -4 12 -88 20 -99
9z"/>
<path d="M4929 78 c-1 -2 -3 -20 -4 -40 -1 -26 3 -38 12 -38 9 0 13 13 13 40
0 22 -4 40 -10 40 -5 0 -11 -1 -11 -2z"/>
</g>
</svg>
