<?xml version="1.0" standalone="no"?>
<!DOCTYPE svg PUBLIC "-//W3C//DTD SVG 20010904//EN"
 "http://www.w3.org/TR/2001/REC-SVG-20010904/DTD/svg10.dtd">
<svg version="1.0" xmlns="http://www.w3.org/2000/svg"
 width="500.000000pt" height="500.000000pt" viewBox="0 0 500.000000 500.000000"
 preserveAspectRatio="xMidYMid meet">
<metadata>
Created by potrace 1.14, written by Peter Selinger 2001-2017
</metadata>
<g transform="translate(0.000000,500.000000) scale(0.100000,-0.100000)"
fill="#000000" stroke="none">
<path d="M2370 4648 c-48 -15 -74 -31 -112 -69 -45 -45 -98 -139 -98 -174 0
-17 -4 -17 -650 -16 -195 1 -367 -2 -381 -5 -27 -5 -66 -58 -799 -1079 -91
-126 -177 -245 -190 -263 l-25 -34 -1 -1240 c0 -1048 2 -1242 13 -1254 30 -30
53 -8 93 91 17 44 38 94 46 110 11 26 600 1444 689 1660 64 156 137 331 154
370 10 22 24 55 31 73 12 30 15 32 64 32 603 5 2641 -1 2646 -7 5 -4 18 -33
30 -63 12 -30 28 -68 35 -85 7 -16 41 -97 75 -180 33 -82 67 -163 74 -180 8
-16 57 -136 111 -265 53 -129 102 -248 110 -265 7 -16 69 -165 138 -330 352
-851 400 -964 414 -969 8 -3 23 -1 34 4 19 10 19 37 19 1253 l0 1242 -62 87
c-157 217 -580 805 -733 1018 -92 129 -177 245 -188 257 -19 22 -22 22 -351
22 -182 0 -416 0 -521 0 l-190 1 -18 57 c-23 72 -60 123 -118 163 -89 61 -217
75 -339 38z m-68 -693 c4 -5 7 -122 7 -258 -1 -159 3 -253 9 -259 15 -15 351
-13 366 2 7 7 11 95 11 268 l0 257 570 0 570 0 1 -517 1 -518 -31 -1 c-17 0
-48 -1 -69 -2 l-37 -2 0 80 c0 56 -6 92 -19 120 -63 139 -253 152 -338 23 -22
-32 -27 -52 -30 -125 -2 -48 -5 -89 -8 -91 -6 -6 -145 -8 -146 -2 0 3 -2 48
-3 100 -4 137 -39 192 -130 205 -56 9 -105 -12 -142 -60 -26 -35 -29 -46 -32
-141 l-4 -104 -77 0 -76 0 -1 84 c-2 67 -7 93 -24 124 -67 119 -227 135 -314
31 -39 -46 -46 -71 -47 -159 l-1 -78 -51 -4 c-29 -1 -64 -2 -79 0 l-28 3 0 96
c0 84 -3 101 -25 138 -54 93 -191 97 -252 7 -13 -21 -18 -53 -21 -134 l-4
-108 -29 -1 c-137 -5 -129 -9 -129 76 0 112 -33 176 -110 214 -101 50 -220 1
-266 -109 -6 -14 -11 -58 -12 -99 0 -40 -3 -75 -5 -77 -8 -8 -116 -8 -124 0
-10 10 -12 1008 -2 1021 10 14 1121 14 1131 0z m-1459 -1102 c-334 -553 -532
-880 -595 -987 l-53 -89 -3 353 c-2 322 -1 355 15 382 16 26 203 314 503 775
58 89 166 256 240 371 l135 209 3 -303 2 -302 -247 -409z m3222 789 c153 -238
273 -423 374 -577 36 -55 70 -108 76 -118 5 -10 75 -118 154 -240 l145 -222 1
-348 c0 -192 -2 -350 -5 -352 -4 -2 -332 534 -436 714 -12 20 -99 164 -194
321 -95 157 -181 299 -191 317 -10 17 -30 51 -46 75 l-27 43 -1 303 c0 166 2
302 5 302 3 -1 68 -99 145 -218z m-3175 -1227 c-12 -27 -25 -59 -30 -70 -5
-11 -18 -41 -29 -67 -11 -27 -21 -48 -23 -48 -2 0 -3 93 -3 208 l1 207 49 81
50 81 3 -171 c2 -154 0 -176 -18 -221z m3224 366 c6 -11 28 -48 49 -82 l37
-61 -2 -210 -3 -210 -52 129 -52 128 0 168 c1 93 3 166 7 163 3 -3 10 -15 16
-25z m-3660 -1413 c-42 -101 -78 -185 -80 -188 -3 -2 -3 167 -2 375 l3 380 75
121 75 120 3 -313 2 -313 -76 -182z m4096 690 c40 -68 76 -127 79 -133 7 -14
8 -735 0 -735 -3 0 -39 80 -80 178 l-74 177 0 318 c0 174 0 317 1 317 1 0 34
-55 74 -122z"/>
<path d="M1365 3796 c-13 -9 -16 -39 -16 -179 -1 -103 2 -172 9 -179 6 -6 64
-10 138 -10 111 0 130 3 141 18 20 28 18 327 -2 348 -13 12 -40 15 -135 15
-73 -1 -125 -5 -135 -13z"/>
<path d="M1861 3797 c-13 -13 -15 -335 -3 -355 12 -19 254 -21 276 -3 14 11
16 39 16 182 0 155 -1 169 -19 178 -26 14 -256 12 -270 -2z"/>
<path d="M2866 3791 c-13 -15 -16 -44 -16 -172 0 -113 4 -160 13 -173 12 -16
30 -18 137 -20 79 -1 129 3 139 10 13 10 16 39 17 170 1 213 9 202 -150 203
-106 0 -126 -3 -140 -18z"/>
<path d="M3368 3793 c-17 -21 -19 -327 -2 -350 16 -23 263 -21 280 2 7 9 12
75 12 175 1 128 -2 162 -14 174 -22 22 -257 21 -276 -1z"/>
<path d="M2405 2668 c-128 -24 -267 -124 -332 -239 -55 -98 -65 -147 -67 -318
-2 -171 3 -151 -83 -311 -35 -66 -142 -268 -187 -355 -12 -23 -16 -62 -16
-170 0 -77 4 -145 8 -152 4 -6 68 -29 142 -51 144 -42 346 -100 395 -112 17
-5 77 -22 134 -38 l104 -30 296 85 c163 47 303 86 311 88 59 14 155 46 164 55
6 6 11 69 11 148 l2 137 -60 115 c-33 63 -98 186 -144 273 l-85 159 -2 156
c-2 87 -9 177 -16 202 -46 165 -185 306 -347 349 -58 16 -168 20 -228 9z m267
-105 c122 -57 211 -166 237 -291 12 -60 15 -196 4 -190 -122 59 -171 74 -287
87 -174 21 -371 -5 -488 -64 -27 -14 -52 -25 -54 -25 -10 0 0 149 13 205 26
108 95 202 189 255 83 48 129 59 229 57 77 -2 100 -7 157 -34z m-583 -747 c85
-58 150 -77 336 -100 22 -3 40 -5 40 -6 0 -80 -3 -448 -4 -456 -1 -6 -139 29
-323 82 -178 51 -325 93 -328 94 -3 0 0 4 5 8 6 4 39 63 75 132 121 233 145
280 146 280 1 0 25 -15 53 -34z m916 -38 c47 -92 119 -227 156 -295 16 -28 26
-54 21 -56 -4 -3 -146 -44 -317 -92 -170 -48 -313 -89 -317 -92 -5 -2 -8 103
-8 235 l0 238 28 1 c117 1 282 48 346 99 23 18 44 33 48 33 3 1 23 -32 43 -71z
m-1002 -484 c106 -31 215 -62 242 -69 102 -28 210 -59 214 -62 2 -1 5 -43 5
-92 l1 -89 -45 14 c-25 7 -70 20 -100 28 -30 8 -111 31 -180 51 -69 20 -132
38 -140 40 -72 16 -194 55 -199 64 -5 8 -7 158 -2 169 2 4 15 1 204 -54z
m1207 -33 l0 -88 -327 -93 c-181 -51 -332 -94 -336 -97 -4 -3 -6 37 -5 88 l3
93 315 92 c173 50 323 92 333 93 15 1 17 -9 17 -88z"/>
</g>
</svg>
