<svg xmlns="http://www.w3.org/2000/svg" xmlns:xlink="http://www.w3.org/1999/xlink" width="500" zoomAndPan="magnify" viewBox="0 0 375 374.999991" height="500" preserveAspectRatio="xMidYMid meet" version="1.0"><defs><clipPath id="22d419a776"><path d="M 8.382812 24.789062 L 366.882812 24.789062 L 366.882812 337.539062 L 8.382812 337.539062 Z M 8.382812 24.789062 " clip-rule="nonzero"/></clipPath></defs><path fill="#ffffff" d="M 224.804688 228.394531 L 224.804688 211.359375 C 224.804688 201.433594 220.9375 192.105469 213.921875 185.09375 C 206.898438 178.074219 197.5625 174.210938 187.632812 174.210938 C 167.136719 174.210938 150.460938 190.875 150.460938 211.359375 L 150.460938 228.394531 L 129.296875 268.28125 C 129.082031 268.691406 128.96875 269.148438 128.96875 269.609375 L 128.96875 289.160156 C 128.96875 290.425781 129.808594 291.539062 131.023438 291.890625 L 186.847656 307.898438 C 187.101562 307.972656 187.367188 308.011719 187.632812 308.011719 C 187.894531 308.011719 188.160156 307.972656 188.414062 307.898438 L 244.238281 291.890625 C 245.457031 291.539062 246.296875 290.425781 246.296875 289.160156 L 246.296875 269.609375 C 246.296875 269.148438 246.183594 268.691406 245.964844 268.28125 Z M 222.230469 235.679688 L 239.296875 267.847656 L 190.472656 281.855469 L 190.472656 246.433594 C 205.316406 245.953125 217.222656 241.753906 222.230469 235.679688 Z M 156.144531 211.359375 C 156.144531 194.007812 170.269531 179.890625 187.632812 179.890625 C 196.042969 179.890625 203.953125 183.164062 209.898438 189.109375 C 215.84375 195.050781 219.117188 202.953125 219.117188 211.359375 L 219.117188 219.613281 C 212.652344 214.796875 201.21875 211.722656 187.632812 211.722656 C 174.046875 211.722656 162.609375 214.796875 156.144531 219.613281 Z M 184.789062 301.398438 L 134.652344 287.019531 L 134.652344 273.382812 L 184.789062 287.769531 Z M 184.789062 281.855469 L 135.964844 267.847656 L 153.03125 235.679688 C 158.039062 241.753906 169.945312 245.953125 184.789062 246.433594 Z M 240.609375 287.019531 L 190.472656 301.398438 L 190.472656 287.769531 L 240.609375 273.382812 Z M 240.609375 287.019531 " fill-opacity="1" fill-rule="nonzero"/><path fill="#ffffff" d="M 158.40625 89.433594 L 141.503906 89.433594 C 139.933594 89.433594 138.660156 90.707031 138.660156 92.273438 L 138.660156 115.097656 C 138.660156 116.667969 139.933594 117.9375 141.503906 117.9375 L 158.40625 117.9375 C 159.976562 117.9375 161.25 116.667969 161.25 115.097656 L 161.25 92.273438 C 161.25 90.707031 159.976562 89.433594 158.40625 89.433594 Z M 158.40625 89.433594 " fill-opacity="1" fill-rule="nonzero"/><path fill="#ffffff" d="M 120.730469 89.433594 L 103.820312 89.433594 C 102.25 89.433594 100.976562 90.707031 100.976562 92.273438 L 100.976562 115.097656 C 100.976562 116.667969 102.25 117.9375 103.820312 117.9375 L 120.730469 117.9375 C 122.300781 117.9375 123.574219 116.667969 123.574219 115.097656 L 123.574219 92.273438 C 123.574219 90.707031 122.300781 89.433594 120.730469 89.433594 Z M 120.730469 89.433594 " fill-opacity="1" fill-rule="nonzero"/><path fill="#ffffff" d="M 216.855469 117.9375 L 233.757812 117.9375 C 235.328125 117.9375 236.601562 116.667969 236.601562 115.097656 L 236.601562 92.273438 C 236.601562 90.707031 235.328125 89.433594 233.757812 89.433594 L 216.855469 89.433594 C 215.285156 89.433594 214.015625 90.707031 214.015625 92.273438 L 214.015625 115.097656 C 214.015625 116.667969 215.285156 117.9375 216.855469 117.9375 Z M 216.855469 117.9375 " fill-opacity="1" fill-rule="nonzero"/><path fill="#ffffff" d="M 254.53125 117.9375 L 271.441406 117.9375 C 273.011719 117.9375 274.285156 116.667969 274.285156 115.097656 L 274.285156 92.273438 C 274.285156 90.707031 273.011719 89.433594 271.441406 89.433594 L 254.53125 89.433594 C 252.964844 89.433594 251.691406 90.707031 251.691406 92.273438 L 251.691406 115.097656 C 251.691406 116.667969 252.964844 117.9375 254.53125 117.9375 Z M 254.53125 117.9375 " fill-opacity="1" fill-rule="nonzero"/><g clip-path="url(#22d419a776)"><path fill="#ffffff" d="M 366.203125 148.945312 L 292.996094 47.203125 C 292.460938 46.460938 291.601562 46.019531 290.6875 46.019531 L 213.503906 46.019531 C 212.339844 39.734375 207.484375 24.789062 187.632812 24.789062 C 167.777344 24.789062 162.921875 39.734375 161.757812 46.019531 L 84.574219 46.019531 C 83.660156 46.019531 82.800781 46.460938 82.265625 47.203125 L 9.058594 148.949219 C 8.710938 149.429688 8.523438 150.011719 8.523438 150.605469 L 8.523438 334.457031 C 8.523438 335.8125 9.480469 336.976562 10.8125 337.242188 C 12.140625 337.507812 13.472656 336.796875 13.996094 335.546875 L 45.179688 260.507812 L 60.121094 224.558594 L 86.472656 161.140625 L 288.792969 161.140625 L 315.140625 224.558594 L 330.039062 260.394531 C 330.050781 260.429688 330.066406 260.46875 330.082031 260.507812 L 361.269531 335.546875 C 361.71875 336.621094 362.765625 337.296875 363.894531 337.296875 C 364.078125 337.296875 364.265625 337.28125 364.449219 337.242188 C 365.78125 336.976562 366.738281 335.808594 366.738281 334.457031 L 366.738281 150.605469 C 366.738281 150.011719 366.550781 149.429688 366.203125 148.945312 Z M 39.710938 258.851562 L 27.722656 287.699219 L 27.722656 230.9375 L 39.710938 211.082031 Z M 68.277344 190.109375 L 60.339844 209.214844 L 60.339844 176.921875 L 68.277344 163.773438 Z M 81.730469 130.496094 L 14.210938 242.3125 L 14.210938 188.617188 L 81.730469 84.417969 Z M 287.84375 155.457031 L 277.554688 155.457031 L 277.554688 146.578125 C 277.554688 138.554688 271.019531 132.023438 262.984375 132.023438 C 259.09375 132.023438 255.4375 133.539062 252.6875 136.285156 C 249.9375 139.035156 248.421875 142.691406 248.421875 146.578125 L 248.421875 155.457031 L 236.601562 155.457031 L 236.601562 143.3125 C 236.601562 137.085938 231.535156 132.023438 225.308594 132.023438 C 222.296875 132.023438 219.460938 133.195312 217.320312 135.328125 C 215.1875 137.460938 214.015625 140.292969 214.015625 143.3125 L 214.015625 155.457031 L 202.203125 155.457031 L 202.203125 146.578125 C 202.203125 142.691406 200.6875 139.035156 197.933594 136.285156 C 195.175781 133.535156 191.515625 132.023438 187.632812 132.023438 C 179.597656 132.023438 173.0625 138.554688 173.0625 146.578125 L 173.0625 155.457031 L 161.25 155.457031 L 161.25 143.3125 C 161.25 140.292969 160.074219 137.460938 157.9375 135.324219 C 155.800781 133.195312 152.964844 132.023438 149.957031 132.023438 C 143.726562 132.023438 138.660156 137.085938 138.660156 143.3125 L 138.660156 155.457031 L 126.839844 155.457031 L 126.839844 146.578125 C 126.839844 142.691406 125.328125 139.035156 122.578125 136.289062 C 119.824219 133.539062 116.167969 132.023438 112.28125 132.023438 C 104.246094 132.023438 97.710938 138.554688 97.710938 146.578125 L 97.710938 155.457031 L 87.417969 155.457031 L 87.417969 77.644531 L 173.0625 77.644531 L 173.0625 115.097656 C 173.0625 116.667969 174.335938 117.9375 175.902344 117.9375 L 199.359375 117.9375 C 200.929688 117.9375 202.203125 116.667969 202.203125 115.097656 L 202.203125 77.644531 L 287.84375 77.644531 Z M 314.925781 209.214844 L 306.984375 190.109375 L 306.984375 163.773438 L 314.925781 176.921875 Z M 347.539062 287.699219 L 335.550781 258.851562 L 335.550781 211.082031 L 347.539062 230.9375 Z M 361.050781 242.3125 L 293.53125 130.496094 L 293.53125 84.414062 L 361.050781 188.617188 Z M 361.050781 242.3125 " fill-opacity="1" fill-rule="nonzero"/></g></svg>